# xmcd
#
# Track frame offsets:
#	150
#	2373
#	6175
#	19696
#	35339
#	41629
#	60050
#	78750
#	81868
#	93398
#	103035
#	115938
#	122586
#	135174
#	149974
#	166500
#	184789
#	188236
#	205936
#	213646
#	220907
#	236106
#	249298
#	257361
#	273450
#
# Disc length: 3722 seconds
#
# Revision: 3
# Processed by: cddbd v1.5.2PL0 Copyright (c) Steve Scherf et al.
# Submitted via: EasyCDDAExtractor 5.0.6
#
DISCID=470e8819
DTITLE=Various Artist - Rza presents_ Afro Samurai (Soundtrack)
DYEAR=2007
DGENRE=Hip-Hop
TTITLE0=Rza - Afro Theme
TTITLE1=Rza - Afro Intro (Instrumental)
TTITLE2=Rza - Certified Samurai (Feat. Talib Kweli, Lil Free and Suga Bang)
TTITLE3=Rza - Just A Lil' Dude ''Who Dat Ovah Ther'' (Feat. Q-Tip and Free Murde
TTITLE3=r)
TTITLE4=Rza - Afro's Father Fight (Instrumental)
TTITLE5=Stone Mecca - Oh
TTITLE6=Stone Mecca - The Walk
TTITLE7=Rza - Bazooka Fight (Instrumental I)
TTITLE8=Rza - Who Is Tha Man (Feat. The Reverend William Burk)
TTITLE9=Rza - Ninjaman (Instrumental)
TTITLE10=Rza - Cameo Afro (Feat. Big Daddy Kane, Gza and Suga Bang)
TTITLE11=Rza - Tears Of A Samurai (Instrumental)
TTITLE12=Rza - Take Sword Pt. I (Feat. Beretta 9)
TTITLE13=Rza - The Empty 7 Theme (Instrumental)
TTITLE14=Rza - Baby (Feat. Maurice)
TTITLE15=Rza - Take Sword Pt. II (Feat. 60 Second Assassin and True Master)
TTITLE16=Rza - Bazooka Fight 2 Inst. II
TTITLE17=Rza - Fury In My Eyes_Revenge (Feat. Thea)
TTITLE18=Rza - Afro Samurai Theme (First Movement) (Instrumental)
TTITLE19=Rza - Afro Samurai Theme (Second Movement) (Instrumental)
TTITLE20=Bobby Digital - Insomnia (Feat. Jay Love)
TTITLE21=Bobby Digital - So Fly (Feat. Division)
TTITLE22=Bobby Digital - We All We Got (Feat. Black Knights)
TTITLE23=Bobby Digital - Gorious Day (Feat. Dexter Wiggles)
TTITLE24=Rza - Series Outro (Instrumental)
EXTD=
EXTT0=
EXTT1=
EXTT2=
EXTT3=
EXTT4=
EXTT5=
EXTT6=
EXTT7=
EXTT8=
EXTT9=
EXTT10=
EXTT11=
EXTT12=
EXTT13=
EXTT14=
EXTT15=
EXTT16=
EXTT17=
EXTT18=
EXTT19=
EXTT20=
EXTT21=
EXTT22=
EXTT23=
EXTT24=
PLAYORDER=
